<svg width="28" height="28" viewBox="0 0 28 28" fill="none" xmlns="http://www.w3.org/2000/svg">
<path d="M25.6667 19.7403V23.2403C25.668 23.5652 25.6014 23.8868 25.4713 24.1845C25.3411 24.4822 25.1502 24.7495 24.9108 24.9691C24.6713 25.1888 24.3887 25.356 24.0809 25.4601C23.7731 25.5642 23.4469 25.6029 23.1233 25.5736C19.5333 25.1835 16.0848 23.9568 13.055 21.9919C10.2361 20.2007 7.84623 17.8108 6.055 14.9919C4.08331 11.9483 2.85629 8.4831 2.47334 4.87694C2.44418 4.55432 2.48252 4.22916 2.58592 3.92217C2.68932 3.61518 2.8555 3.33308 3.0739 3.09383C3.29229 2.85459 3.55811 2.66344 3.85443 2.53255C4.15074 2.40167 4.47107 2.33391 4.795 2.33361H8.295C8.86119 2.32804 9.41009 2.52853 9.83939 2.89773C10.2687 3.26693 10.5491 3.77963 10.6283 4.34028C10.7761 5.46035 11.05 6.56012 11.445 7.61861C11.602 8.03619 11.6359 8.49001 11.5429 8.9263C11.4498 9.3626 11.2337 9.76307 10.92 10.0803L9.43834 11.5619C11.0992 14.4827 13.5175 16.9011 16.4383 18.5619L17.92 17.0803C18.2372 16.7666 18.6377 16.5504 19.074 16.4574C19.5103 16.3643 19.9641 16.3983 20.3817 16.5553C21.4402 16.9503 22.5399 17.2242 23.66 17.3719C24.2267 17.4519 24.7443 17.7373 25.1143 18.174C25.4843 18.6107 25.6809 19.1681 25.6667 19.7403Z" stroke="white" stroke-opacity="0.95" stroke-width="2.33333" stroke-linecap="round" stroke-linejoin="round"/>
</svg>
