<svg width="28" height="28" viewBox="0 0 28 28" fill="none" xmlns="http://www.w3.org/2000/svg">
<g opacity="0.95" clip-path="url(#clip0_40_978)">
<path d="M7 25.6668V4.66683C7 4.04799 7.24583 3.4545 7.68342 3.01691C8.121 2.57933 8.71449 2.3335 9.33333 2.3335H18.6667C19.2855 2.3335 19.879 2.57933 20.3166 3.01691C20.7542 3.4545 21 4.04799 21 4.66683V25.6668H7Z" stroke="white" stroke-opacity="0.95" stroke-width="2.71833" stroke-linecap="round" stroke-linejoin="round"/>
<path d="M7.00016 14H4.66683C4.04799 14 3.4545 14.2458 3.01691 14.6834C2.57933 15.121 2.3335 15.7145 2.3335 16.3333V23.3333C2.3335 23.9522 2.57933 24.5457 3.01691 24.9832C3.4545 25.4208 4.04799 25.6667 4.66683 25.6667H7.00016" stroke="white" stroke-opacity="0.95" stroke-width="2.71833" stroke-linecap="round" stroke-linejoin="round"/>
<path d="M21 10.5H23.3333C23.9522 10.5 24.5457 10.7458 24.9832 11.1834C25.4208 11.621 25.6667 12.2145 25.6667 12.8333V23.3333C25.6667 23.9522 25.4208 24.5457 24.9832 24.9832C24.5457 25.4208 23.9522 25.6667 23.3333 25.6667H21" stroke="white" stroke-opacity="0.95" stroke-width="2.71833" stroke-linecap="round" stroke-linejoin="round"/>
<path d="M11.6665 7H16.3332" stroke="white" stroke-opacity="0.95" stroke-width="2.71833" stroke-linecap="round" stroke-linejoin="round"/>
<path d="M11.6665 11.6665H16.3332" stroke="white" stroke-opacity="0.95" stroke-width="2.71833" stroke-linecap="round" stroke-linejoin="round"/>
<path d="M11.6665 16.3335H16.3332" stroke="white" stroke-opacity="0.95" stroke-width="2.71833" stroke-linecap="round" stroke-linejoin="round"/>
<path d="M11.6665 21H16.3332" stroke="white" stroke-opacity="0.95" stroke-width="2.71833" stroke-linecap="round" stroke-linejoin="round"/>
</g>
<defs>
<clipPath id="clip0_40_978">
<rect width="28" height="28" fill="white"/>
</clipPath>
</defs>
</svg>
