<svg width="28" height="28" viewBox="0 0 28 28" fill="none" xmlns="http://www.w3.org/2000/svg">
<g opacity="0.95">
<path d="M24.5 8.74984V6.99984C24.5 6.381 24.2542 5.78751 23.8166 5.34992C23.379 4.91234 22.7855 4.6665 22.1667 4.6665H5.83333C5.21449 4.6665 4.621 4.91234 4.18342 5.34992C3.74583 5.78751 3.5 6.381 3.5 6.99984V23.3332C3.5 23.952 3.74583 24.5455 4.18342 24.9831C4.621 25.4207 5.21449 25.6665 5.83333 25.6665H9.91667" stroke="white" stroke-opacity="0.95" stroke-width="2.71833" stroke-linecap="round" stroke-linejoin="round"/>
<path d="M18.6665 2.3335V7.00016" stroke="white" stroke-opacity="0.95" stroke-width="2.71833" stroke-linecap="round" stroke-linejoin="round"/>
<path d="M9.3335 2.3335V7.00016" stroke="white" stroke-opacity="0.95" stroke-width="2.71833" stroke-linecap="round" stroke-linejoin="round"/>
<path d="M3.5 11.6665H9.33333" stroke="white" stroke-opacity="0.95" stroke-width="2.71833" stroke-linecap="round" stroke-linejoin="round"/>
<path d="M20.4165 20.4168L18.6665 19.0168V16.3335" stroke="white" stroke-opacity="0.95" stroke-width="2.71833" stroke-linecap="round" stroke-linejoin="round"/>
<path d="M18.6665 25.6665C22.5325 25.6665 25.6665 22.5325 25.6665 18.6665C25.6665 14.8005 22.5325 11.6665 18.6665 11.6665C14.8005 11.6665 11.6665 14.8005 11.6665 18.6665C11.6665 22.5325 14.8005 25.6665 18.6665 25.6665Z" stroke="white" stroke-opacity="0.95" stroke-width="2.71833" stroke-linecap="round" stroke-linejoin="round"/>
</g>
</svg>
