<svg width="28" height="28" viewBox="0 0 28 28" fill="none" xmlns="http://www.w3.org/2000/svg">
<g opacity="0.95">
<path d="M18.0567 15.0386L19.8242 24.9856C19.844 25.1027 19.8276 25.2231 19.7771 25.3306C19.7266 25.4382 19.6445 25.5277 19.5418 25.5873C19.439 25.647 19.3205 25.6738 19.2021 25.6642C19.0837 25.6547 18.9711 25.6092 18.8792 25.5339L14.7025 22.3991C14.5009 22.2484 14.256 22.167 14.0043 22.167C13.7526 22.167 13.5077 22.2484 13.306 22.3991L9.12236 25.5327C9.03057 25.6079 8.91804 25.6533 8.79978 25.6629C8.68151 25.6724 8.56315 25.6457 8.46047 25.5863C8.35779 25.5268 8.27569 25.4375 8.2251 25.3301C8.17452 25.2228 8.15787 25.1026 8.17736 24.9856L9.9437 15.0386" stroke="white" stroke-opacity="0.95" stroke-width="2.71833" stroke-linecap="round" stroke-linejoin="round"/>
<path d="M14 16.3335C17.866 16.3335 21 13.1995 21 9.3335C21 5.4675 17.866 2.3335 14 2.3335C10.134 2.3335 7 5.4675 7 9.3335C7 13.1995 10.134 16.3335 14 16.3335Z" stroke="white" stroke-opacity="0.95" stroke-width="2.71833" stroke-linecap="round" stroke-linejoin="round"/>
</g>
</svg>
