<svg width="28" height="28" viewBox="0 0 28 28" fill="none" xmlns="http://www.w3.org/2000/svg">
<g opacity="0.95" clip-path="url(#clip0_40_1050)">
<path d="M25.6668 14.0002H22.7735C22.2636 13.9991 21.7674 14.165 21.3608 14.4726C20.9542 14.7802 20.6595 15.2126 20.5218 15.7035L17.7802 25.4568C17.7625 25.5174 17.7256 25.5706 17.6752 25.6085C17.6247 25.6464 17.5633 25.6668 17.5002 25.6668C17.4371 25.6668 17.3757 25.6464 17.3252 25.6085C17.2747 25.5706 17.2378 25.5174 17.2202 25.4568L10.7802 2.5435C10.7625 2.48291 10.7256 2.42969 10.6752 2.39183C10.6247 2.35396 10.5633 2.3335 10.5002 2.3335C10.4371 2.3335 10.3757 2.35396 10.3252 2.39183C10.2747 2.42969 10.2378 2.48291 10.2202 2.5435L7.4785 12.2968C7.34137 12.7858 7.04844 13.2168 6.64417 13.5242C6.2399 13.8316 5.74637 13.9987 5.2385 14.0002H2.3335" stroke="white" stroke-opacity="0.95" stroke-width="2.71833" stroke-linecap="round" stroke-linejoin="round"/>
</g>
<defs>
<clipPath id="clip0_40_1050">
<rect width="28" height="28" fill="white"/>
</clipPath>
</defs>
</svg>
