<svg width="28" height="28" viewBox="0 0 28 28" fill="none" xmlns="http://www.w3.org/2000/svg">
<path d="M23.3333 2.33325H4.66659C3.37792 2.33325 2.33325 3.37792 2.33325 4.66659V9.33325C2.33325 10.6219 3.37792 11.6666 4.66659 11.6666H23.3333C24.6219 11.6666 25.6666 10.6219 25.6666 9.33325V4.66659C25.6666 3.37792 24.6219 2.33325 23.3333 2.33325Z" stroke="#00ADC0" stroke-width="2.33333" stroke-linecap="round" stroke-linejoin="round"/>
<path d="M23.3333 16.3333H4.66659C3.37792 16.3333 2.33325 17.3779 2.33325 18.6666V23.3333C2.33325 24.6219 3.37792 25.6666 4.66659 25.6666H23.3333C24.6219 25.6666 25.6666 24.6219 25.6666 23.3333V18.6666C25.6666 17.3779 24.6219 16.3333 23.3333 16.3333Z" stroke="#00ADC0" stroke-width="2.33333" stroke-linecap="round" stroke-linejoin="round"/>
<path d="M7 7H7.01167" stroke="#00ADC0" stroke-width="2.33333" stroke-linecap="round" stroke-linejoin="round"/>
<path d="M7 21H7.01167" stroke="#00ADC0" stroke-width="2.33333" stroke-linecap="round" stroke-linejoin="round"/>
</svg>
