<svg width="28" height="28" viewBox="0 0 28 28" fill="none" xmlns="http://www.w3.org/2000/svg">
<path d="M18.6666 24.5V22.1667C18.6666 20.929 18.1749 19.742 17.2998 18.8668C16.4246 17.9917 15.2376 17.5 13.9999 17.5H6.99992C5.76224 17.5 4.57526 17.9917 3.70009 18.8668C2.82492 19.742 2.33325 20.929 2.33325 22.1667V24.5" stroke="#00ADC0" stroke-width="2.33333" stroke-linecap="round" stroke-linejoin="round"/>
<path d="M10.4999 12.8333C13.0772 12.8333 15.1666 10.744 15.1666 8.16667C15.1666 5.58934 13.0772 3.5 10.4999 3.5C7.92259 3.5 5.83325 5.58934 5.83325 8.16667C5.83325 10.744 7.92259 12.8333 10.4999 12.8333Z" stroke="#00ADC0" stroke-width="2.33333" stroke-linecap="round" stroke-linejoin="round"/>
<path d="M18.6667 12.8333L21.0001 15.1667L25.6667 10.5" stroke="#00ADC0" stroke-width="2.33333" stroke-linecap="round" stroke-linejoin="round"/>
</svg>
