<svg width="17" height="17" viewBox="0 0 17 17" fill="none" xmlns="http://www.w3.org/2000/svg">
<path d="M8.06743 1.60633C8.09811 1.54435 8.14549 1.49218 8.20425 1.45571C8.263 1.41923 8.33078 1.3999 8.39993 1.3999C8.46908 1.3999 8.53686 1.41923 8.59561 1.45571C8.65436 1.49218 8.70175 1.54435 8.73243 1.60633L10.3494 4.88162C10.4559 5.0972 10.6132 5.28371 10.8077 5.42514C11.0021 5.56657 11.228 5.6587 11.4659 5.69362L15.0821 6.22282C15.1506 6.23275 15.215 6.26165 15.268 6.30626C15.3209 6.35087 15.3603 6.4094 15.3817 6.47524C15.4031 6.54108 15.4057 6.6116 15.3891 6.67882C15.3725 6.74604 15.3375 6.80728 15.2879 6.85562L12.6727 9.40221C12.5003 9.57028 12.3712 9.77775 12.2967 10.0068C12.2222 10.2358 12.2045 10.4794 12.245 10.7168L12.8624 14.3148C12.8745 14.3833 12.8671 14.4538 12.8411 14.5183C12.815 14.5828 12.7714 14.6386 12.7151 14.6795C12.6588 14.7204 12.5922 14.7446 12.5228 14.7494C12.4534 14.7543 12.3841 14.7395 12.3227 14.7068L9.09013 13.0072C8.87713 12.8954 8.64015 12.8369 8.39958 12.8369C8.159 12.8369 7.92203 12.8954 7.70903 13.0072L4.47714 14.7068C4.41577 14.7393 4.34651 14.7539 4.27725 14.749C4.20799 14.7441 4.1415 14.7198 4.08534 14.679C4.02919 14.6381 3.98562 14.5823 3.9596 14.518C3.93357 14.4536 3.92614 14.3832 3.93814 14.3148L4.55484 10.7175C4.59557 10.48 4.57792 10.2362 4.50341 10.007C4.4289 9.7779 4.29976 9.57032 4.12714 9.40221L1.51194 6.85632C1.46196 6.80804 1.42654 6.7467 1.40972 6.67927C1.39289 6.61185 1.39535 6.54105 1.4168 6.47495C1.43825 6.40885 1.47783 6.35011 1.53103 6.30541C1.58424 6.26071 1.64893 6.23185 1.71774 6.22212L5.33323 5.69362C5.57141 5.65897 5.79761 5.56696 5.99234 5.42551C6.18708 5.28406 6.34452 5.09741 6.45113 4.88162L8.06743 1.60633Z" stroke="white" stroke-opacity="0.95" stroke-width="1.4" stroke-linecap="round" stroke-linejoin="round"/>
</svg>
